<svg width="36" height="46" viewBox="0 0 36 46" xmlns="http://www.w3.org/2000/svg"><title>bakery_marker</title><desc>Created with Sketch.</desc><g fill="none"><path d="M9.676 42.879c0-1.263 3.732-2.284 8.332-2.284 4.601 0 8.333 1.021 8.333 2.284s-3.732 2.284-8.333 2.284-8.332-1.021-8.332-2.284" fill-opacity=".15" fill="#030404"/><path d="M35.681 17.758c0-9.804-7.913-17.758-17.673-17.758-9.759 0-17.673 7.953-17.673 17.758 0 8.849 6.437 16.183 14.859 17.538l3.07 8.853 2.688-8.876c8.357-1.41 14.729-8.713 14.729-17.515" fill="#9C722A"/><path d="M21.425 9.524c-.327.569-1.107 1.145-2.945 1.145-1.741 0-2.534-.517-2.887-1.054-3.286.838-5.623 2.972-5.623 5.472 0 3.24 3.9 2.521 8.711 2.521s8.712.719 8.712-2.521c0-2.592-2.5-4.791-5.969-5.564" fill="#FEFEFE"/><path d="M20.83 8.686c0-.876-1.054-1.584-2.35-1.584s-2.35.708-2.35 1.584c0 .871 1.054 1.178 2.35 1.178s2.35-.307 2.35-1.178m-3.732-.752c.281-.177.615-.164.74.026.124.19-.007.491-.289.668-.281.183-.615.17-.74-.02-.124-.19.007-.491.288-.674" fill="#FEFEFE"/><path d="M12.405 18.675l1.087 5.819s.052 1.204 1.329 1.204h7.646c1.276 0 1.322-1.204 1.322-1.204l1.093-5.819-6.238.085-6.238-.085zm2.789 6.061l-.079.007c-.229 0-.433-.137-.472-.334l-.89-4.321c-.04-.222.131-.431.386-.464.262-.039.504.104.55.327l.891 4.32c.045.223-.125.425-.386.465zm1.885.007h-.033c-.255 0-.464-.164-.484-.373l-.36-4.327c-.02-.216.183-.412.444-.426.275-.012.497.151.518.374l.359 4.319c.02.223-.183.42-.444.433zm2.697-4.726v4.372c0 .223-.216.406-.484.406-.269 0-.491-.183-.491-.406v-4.372c0-.223.222-.4.491-.4.268 0 .484.177.484.4z" fill="#FEFEFE"/></g></svg>