<svg width="46" height="46" viewBox="0 0 46 46" xmlns="http://www.w3.org/2000/svg"><title>category_b&amp;b_hotel</title><desc>Created with Sketch.</desc><g fill="none"><path d="M2.177 23.01c0-11.626 9.42-21.05 21.041-21.05 11.622 0 21.042 9.424 21.042 21.05 0 11.626-9.42 21.05-21.042 21.05-11.621 0-21.041-9.424-21.041-21.05" fill="#2285A2"/><path d="M23.218 3.398c-10.809 0-19.604 8.798-19.604 19.612 0 10.814 8.795 19.612 19.604 19.612 10.81 0 19.605-8.798 19.605-19.612 0-10.814-8.795-19.612-19.605-19.612m0 42.1c-12.395 0-22.479-10.088-22.479-22.487 0-12.4 10.084-22.487 22.479-22.487 12.396 0 22.48 10.087 22.48 22.487 0 12.399-10.084 22.487-22.48 22.487" fill="#FEFEFE"/><path fill="#FEFEFE" d="M10.537 30.835h2.416v-16.46h-2.416z"/><path fill="#FEFEFE" d="M12.621 27.49h23.028v-2.307h-23.028z"/><path fill="#FEFEFE" d="M35.103 30.835h2.412v-9h-2.412z"/><path d="M19.533 20.958c0 1.275-1.032 2.307-2.307 2.307-1.271 0-2.303-1.032-2.303-2.307 0-1.271 1.032-2.302 2.303-2.302 1.275 0 2.307 1.031 2.307 2.302" fill="#FEFEFE"/><path d="M28.742 18.433h-7.676v5.16h12.063s-.328-4.828-4.386-5.16" fill="#FEFEFE"/></g></svg>