<svg width="36" height="46" viewBox="0 0 36 46" xmlns="http://www.w3.org/2000/svg"><title>catering_marker</title><desc>Created with Sketch.</desc><g fill="none"><path d="M9.676 42.879c0-1.263 3.732-2.284 8.332-2.284 4.601 0 8.333 1.021 8.333 2.284s-3.732 2.284-8.333 2.284-8.332-1.021-8.332-2.284" fill-opacity=".15" fill="#030404"/><path d="M35.681 17.758c0-9.804-7.913-17.758-17.673-17.758-9.759 0-17.673 7.953-17.673 17.758 0 8.849 6.437 16.183 14.859 17.538l3.07 8.853 2.688-8.876c8.357-1.41 14.729-8.713 14.729-17.515" fill="#20AE9F"/><path d="M17.662 9.766c-4.203 0-7.684 3.057-8.379 7.076h16.756c-.694-4.02-4.175-7.076-8.378-7.076" fill="#FEFEFE"/><path fill="#FEFEFE" d="M7.994 18.026h19.335l-.052 1.139h-19.054z"/><path d="M18.421 9.184c0 .516-.419.936-.936.936-.511 0-.93-.42-.93-.936 0-.517.42-.936.93-.936.517 0 .936.419.936.936" fill="#FEFEFE"/><path d="M22.917 26.843h-4.039s-.969-2.108-3.881-4.215l-3.711-2.755s2.422-.485 5.007 1.623l2.258 1.296s1.46 1.132 2.912-.812l1.126-1.943s1.617-1.14 1.132.648c0 0-1.453 5.027-.805 6.159" fill="#FEFEFE"/></g></svg>