<svg width="46" height="46" viewBox="0 0 46 46" xmlns="http://www.w3.org/2000/svg"><title>category_delivery</title><desc>Created with Sketch.</desc><g fill="none"><path d="M2.243 22.848c0-11.626 9.42-21.05 21.042-21.05 11.622 0 21.041 9.424 21.041 21.05 0 11.622-9.419 21.046-21.041 21.046s-21.042-9.424-21.042-21.046" fill="#77AB41"/><path d="M23.285 3.236c-10.81 0-19.605 8.798-19.605 19.612 0 10.812 8.795 19.608 19.605 19.608 10.809 0 19.604-8.797 19.604-19.608 0-10.814-8.795-19.612-19.604-19.612m0 42.096c-12.396 0-22.48-10.086-22.48-22.483 0-12.4 10.084-22.487 22.48-22.487 12.395 0 22.479 10.087 22.479 22.487 0 12.397-10.084 22.483-22.479 22.483" fill="#FEFEFE"/><path d="M26.951 24.717c.291 0 .526-.239.526-.534v-9.708c0-.295-.235-.534-.526-.534h-14.47c-.291 0-.526.239-.526.534v9.708c0 .295.235.534.526.534h14.47z" fill="#FEFEFE"/><path d="M36.772 21.597l-4.036-4.095-4.034-.089v8.55h-16.574v2.314h2.076c.526-1.105 1.635-1.869 2.922-1.869 1.287 0 2.4.764 2.922 1.869h9.068c.526-1.105 1.635-1.869 2.922-1.869 1.286 0 2.396.764 2.92 1.869h1.814v-6.681zm-2.315 1.506l-3.908-.016-.005-3.525h1.898l2.015 2.052v1.489z" fill="#FEFEFE"/><path d="M32.038 27.655c-1.116 0-2.018.918-2.018 2.047 0 1.133.902 2.048 2.018 2.048 1.113 0 2.015-.915 2.015-2.048 0-1.129-.903-2.047-2.015-2.047" fill="#FEFEFE"/><path d="M17.126 27.655c-1.113 0-2.015.918-2.015 2.047 0 1.133.903 2.048 2.015 2.048 1.116 0 2.018-.915 2.018-2.048 0-1.129-.902-2.047-2.018-2.047" fill="#FEFEFE"/></g></svg>