<svg width="46" height="46" viewBox="0 0 46 46" xmlns="http://www.w3.org/2000/svg"><title>category_farmers</title><desc>Created with Sketch.</desc><g fill="none"><path d="M2.243 22.645c0-11.626 9.42-21.05 21.042-21.05 11.622 0 21.041 9.424 21.041 21.05 0 11.621-9.419 21.045-21.041 21.045s-21.042-9.424-21.042-21.045" fill="#CC4826"/><path d="M23.285 3.033c-10.81 0-19.605 8.798-19.605 19.612 0 10.812 8.795 19.608 19.605 19.608 10.809 0 19.604-8.796 19.604-19.608 0-10.814-8.795-19.612-19.604-19.612m0 42.095c-12.396 0-22.48-10.086-22.48-22.483 0-12.4 10.084-22.487 22.48-22.487 12.395 0 22.479 10.087 22.479 22.487 0 12.397-10.084 22.483-22.479 22.483" fill="#FEFEFE"/><path d="M19.291 14.39s.81-1.283-.324-1.271c0 0-.384-.635.615-1.602 0 0 .878-.899-.138-1.53 0 0-2.779-.486-2.755 2.573l.025 3.064-1.656-2.221s-1.221-1.32-2.367-.377l-.015-.016-.061.089-.085.069.021.016c-.834 1.238.574 2.351.574 2.351l2.331 1.477-3.019.239c-3.018.243-2.294 2.999-2.294 2.999.708.967 1.517.008 1.517.008.866-1.092 1.522-.76 1.522-.76.09 1.144 1.283.218 1.283.218.724-1.275 3.342-1.806 3.342-1.806s.292-2.679 1.485-3.52" fill="#FEFEFE"/><path d="M35.101 29.245s-1.821-3.027-4.265-6.316l-1.764 1.687s-.263.401-.931.389c0 0-.55-.324.333-1.234l1.457-2.036c-1.185-1.526-2.473-3.035-3.748-4.261 0 0-3.467-4.67-7.311.821 0 0-4.411 3.812.583 7.292l1.501-1.551c1.186-1.67 1.85-.874 1.85-.874.202 1.072-.356 1.603-.356 1.603l-1.296 1.966c1.862 1.214 5.123 3.226 8.178 4.557l1.246-1.287c.773-1.084 1.202-.57 1.202-.57.13.696-.23 1.04-.23 1.04l-.89 1.351c1.052.389 2.047.668 2.917.765 0 0 3.467.664 1.526-3.342" fill="#FEFEFE"/></g></svg>