<svg width="46" height="46" viewBox="0 0 46 46" xmlns="http://www.w3.org/2000/svg"><title>category_health_store</title><desc>Created with Sketch.</desc><g fill="none"><path d="M2.243 23.129c0-11.626 9.42-21.05 21.042-21.05 11.622 0 21.041 9.424 21.041 21.05 0 11.626-9.419 21.05-21.041 21.05s-21.042-9.424-21.042-21.05" fill="#D6B728"/><path d="M23.285 3.517c-10.81 0-19.605 8.798-19.605 19.612 0 10.814 8.795 19.612 19.605 19.612 10.809 0 19.604-8.798 19.604-19.612 0-10.814-8.795-19.612-19.604-19.612m0 42.1c-12.396 0-22.48-10.088-22.48-22.487 0-12.4 10.084-22.487 22.48-22.487 12.395 0 22.479 10.087 22.479 22.487 0 12.399-10.084 22.487-22.479 22.487" fill="#FEFEFE"/><path d="M36.95 19.346l-3.929-6.361-9.178-.105v-.003h-.311v.003l-9.177.105-3.925 6.361s-.765 2.194 2.072 2.52c0 0 2.619.11 3.383-1.424 0 0 .433 1.534 2.505 1.534 0 0 2.4 0 2.728-1.425 0 0 .4 1.19 2.414 1.303v.012l.158-.004.153.004v-.012c2.015-.113 2.416-1.303 2.416-1.303.329 1.425 2.727 1.425 2.727 1.425 2.072 0 2.51-1.534 2.51-1.534.763 1.534 3.378 1.424 3.378 1.424 2.837-.327 2.076-2.52 2.076-2.52zm-16.485-.55s0 1.974-2.29 1.756c0 0-1.639.109-1.202-2.193l1.416-4.386h2.728l-.653 4.823zm8.433 1.756c-2.291.218-2.291-1.756-2.291-1.756l-.655-4.823h2.727l1.417 4.386c.436 2.302-1.198 2.193-1.198 2.193z" fill="#FEFEFE"/><path fill="#FEFEFE" d="M15.12 28.887h3.487v-3.508h-3.487z"/><path d="M34.955 30.158v-6.644h-1.311v6.688l.009.105c.004.025.081.583-.315 1.04-.402.47-1.202.721-2.311.721h-4.782v-8.336h-5.669v8.336h-4.475c-1.105 0-1.906-.251-2.311-.721-.392-.457-.315-1.015-.315-1.031l.012-6.802h-1.311v6.644c-.034.271-.085 1.202.602 2.023.668.797 1.784 1.202 3.323 1.202h14.927c1.542 0 2.659-.404 3.326-1.202.688-.821.635-1.752.603-2.023" fill="#FEFEFE"/><path fill="#FEFEFE" d="M28.205 28.887h3.493v-3.508h-3.493z"/></g></svg>