<svg width="27" height="42" viewBox="0 0 27 42" xmlns="http://www.w3.org/2000/svg"><title>friend-tag</title><desc>Created with Sketch.</desc><g transform="translate(0 0)" fill="none"><path id="Path-516" fill="#ED5451" d="M7 36.601l6.614-5.4 6.885 5.663v-11.864h-13.499z"/><path d="M7 36.601l6.614-5.4 6.885 5.663v-11.864h-13.499v11.601zm1.265 1.549l-3.265 2.666v-17.816000000000003h17.499000000000002v18.099l-3.27-2.69-6.885-5.663 2.535.005-6.614 5.4z" fill="#fff"/><circle id="Oval-1" fill="#ED5451" cx="13.5" cy="13.5" r="11.5"/><path d="M13.5 25c6.351 0 11.5-5.149 11.5-11.5s-5.149-11.5-11.5-11.5-11.5 5.149-11.5 11.5 5.149 11.5 11.5 11.5zm0 2c-7.456 0-13.5-6.044-13.5-13.5s6.044-13.5 13.5-13.5 13.5 6.044 13.5 13.5-6.044 13.5-13.5 13.5z" fill="#fff"/><path fill="#fff" d="M15.661 11.46l-1.861-4.46-1.861 4.46-4.439.132 3.294 3.066-1.204 4.342 4.21-2.051 4.31 2.051-1.304-4.342 3.294-3.066z"/></g></svg>