<?xml version="1.0" encoding="UTF-8"?>
<svg width="46px" height="46px" viewBox="0 0 46 46" version="1.1" xmlns="http://www.w3.org/2000/svg" xmlns:xlink="http://www.w3.org/1999/xlink">
    <!-- Generator: Sketch 50.2 (55047) - http://www.bohemiancoding.com/sketch -->
    <title>Artboard 3</title>
    <desc>Created with Sketch.</desc>
    <defs></defs>
    <g id="Artboard-3" stroke="none" stroke-width="1" fill="none" fill-rule="evenodd">
        <g id="Group" fill-rule="nonzero">
            <g id="Asset-91">
                <ellipse id="Oval" fill="#FBB040" cx="23.1244262" cy="23.3231405" rx="20.7716393" ry="20.9433058"></ellipse>
                <path d="M23.1206557,2.93107438 C15.0937816,2.92799887 7.85558923,7.80086531 4.78172368,15.2771356 C1.70785813,22.7534059 3.40377307,31.3604929 9.07855184,37.0843458 C14.7533306,42.8081987 23.2892225,44.5214007 30.7053797,41.4249732 C38.1215368,38.3285456 42.9572125,31.032386 42.9572131,22.9391736 C42.9468276,11.8963135 34.0729958,2.94574293 23.1206557,2.93107438 M23.1206557,45.8897521 C13.9164649,45.8928275 5.61688196,40.3049014 2.09247685,31.731943 C-1.43192827,23.1589847 0.513024122,13.2895552 7.02029155,6.72633361 C13.527559,0.163112066 23.3154463,-1.80118547 31.8193023,1.74950521 C40.3231582,5.30019589 45.8680323,13.6665178 45.8680328,22.9467769 C45.8576439,35.6105229 35.6805965,45.8750799 23.1206557,45.8897521" id="Shape" fill="#FEFEFE"></path>
                <ellipse id="Oval" fill="#FBB040" cx="23.2111475" cy="22.9391736" rx="19.6555738" ry="19.8180165"></ellipse>
                <path d="M30.0244262,17.0047934 L16.8277049,16.9363636 C16.3461371,16.9345192 15.887212,17.1423276 15.5686657,17.5064761 C15.2501194,17.8706245 15.1029517,18.3556754 15.164918,18.8371901 L17.2236066,35.5644628 C17.333831,36.4061326 18.0481644,37.0334883 18.8901639,37.0280992 L27.9393443,37.073719 C28.7837032,37.0764617 29.4973049,36.443433 29.6021311,35.5986777 L31.6721311,18.8942149 C31.7302488,18.4171528 31.5834314,17.9377843 31.2686512,17.5768261 C30.9538709,17.2158679 30.5011251,17.0077179 30.0244262,17.0047934 Z M28.3804918,24.0112397 L27.147541,33.207438 C27.0595176,33.6929063 26.6298311,34.0385228 26.1408197,34.0171901 L20.677377,33.9905785 C20.1913863,34.005812 19.7677569,33.6595775 19.6819672,33.1770248 L18.4188525,23.9504132 C18.3953911,23.6722732 18.4929338,23.3975767 18.6861514,23.1976548 C18.879369,22.9977328 19.1491989,22.8923095 19.4255738,22.9087603 L27.3888525,22.9505785 C27.6662763,22.9379995 27.9353648,23.0479365 28.1258515,23.2516818 C28.3163383,23.4554272 28.409311,23.7327522 28.3804918,24.0112397 Z" id="Shape" fill="#FFFFFF"></path>
                <rect id="Rectangle-path" fill="#FEFEFE" transform="translate(31.273349, 12.564082) rotate(-15.030000) translate(-31.273349, -12.564082) " x="27.342611" y="11.9406105" width="7.86147541" height="1.24694215" rx="0.623471074"></rect>
                <rect id="Rectangle-path" fill="#FBB040" transform="translate(25.595339, 22.193441) rotate(-73.960000) translate(-25.595339, -22.193441) " x="18.0486996" y="20.1994741" width="15.0932787" height="3.98793388" rx="1.21"></rect>
                <path d="M13.2532787,22.551405 C13.2527419,22.3185236 13.3671876,22.1006443 13.5585504,21.9702353 C13.7499133,21.8398262 13.9930955,21.8139909 14.2072131,21.9013223 C12.4817287,21.0927098 11.4687731,19.2559288 11.698016,17.3514234 C11.9272589,15.4469179 13.3465713,13.9077651 15.2138016,13.5387806 C17.0810319,13.169796 18.9715791,14.0548854 19.8968852,15.7312397 C19.7708536,15.4149552 19.8892734,15.0531274 20.1772517,14.87459 C20.4652299,14.6960526 20.838912,14.7527926 21.0619672,15.0089256 C19.8364616,12.8426293 17.3762866,11.7067809 14.9490237,12.1866154 C12.5217608,12.6664499 10.6691263,14.654878 10.3456723,17.1273811 C10.0222182,19.5998842 11.3001331,22.0046494 13.5209836,23.1026446 C13.3518369,22.9706627 13.2529562,22.7670542 13.2532787,22.551405 Z" id="Shape" fill="#FFFFFF"></path>
                <path d="M13.8847541,23.273843 C13.7597541,23.218843 13.6447541,23.158843 13.5247541,23.098843" id="Shape" fill="#FFFFFF"></path>
                <path d="M14.6445902,22.551405 C14.6464274,22.2873134 14.5005895,22.0446922 14.267541,21.9241322 L14.2260656,21.905124 C13.9068038,21.7792859 13.17149,21.7007374 13,22 C12.82851,22.2992626 12.5,22.5059329 13.5398361,23.1026446 C13.6303279,23.1482645 13.7208197,23.1938843 13.8113115,23.2357025 C14.0171061,23.284633 14.2337905,23.2357272 14.3992549,23.1030032 C14.5647192,22.9702792 14.6606951,22.7683907 14.6596721,22.5552066 L14.6445902,22.551405 Z" id="Shape" fill="#FFFFFF"></path>
                <path d="M14.2622131,21.930124 L14.2072131,21.905124 L14.2622131,21.930124 Z" id="Shape" fill="#FFFFFF"></path>
                <path d="M21.0581967,15.0089256 C21.1281967,15.1339256 21.1981967,15.2639256 21.2631967,15.3939256" id="Shape" fill="#FFFFFF"></path>
                <path d="M19.5,14.5 C19.3706599,14.6929444 19.8102697,15.5153525 19.8968852,15.7312397 L19.9647541,15.8604959 C20.1506885,16.1491567 20.517266,16.2585402 20.8290625,16.1183979 C21.1408591,15.9782555 21.3052065,15.6302386 21.2165574,15.2978512 C21.167541,15.1990083 21.1185246,15.1001653 21.0619672,15.005124 C20.9303608,14.8545647 20.6990419,14.4992205 20.5,14.5 C20.2690275,14.4994588 19.6293401,14.3070556 19.5,14.5 Z" id="Shape" fill="#FFFFFF"></path>
                <path d="M19.9831148,15.9012397 L19.8931148,15.7312397 C19.9170921,15.7908955 19.947257,15.8478735 19.9831148,15.9012397 Z" id="Shape" fill="#FFFFFF"></path>
                <rect id="Rectangle-path" fill="#FFFFFF" transform="translate(15.845484, 17.683272) rotate(-44.600000) translate(-15.845484, -17.683272) " x="11.2115495" y="17.0769083" width="9.26786885" height="1.21272727"></rect>
                <rect id="Rectangle-path" fill="#FFFFFF" transform="translate(15.144866, 15.612563) rotate(-97.930000) translate(-15.144866, -15.612563) " x="12.9692921" y="15.0061989" width="4.35114754" height="1.21272727"></rect>
                <rect id="Rectangle-path" fill="#FFFFFF" transform="translate(13.713936, 17.086615) rotate(-172.070000) translate(-13.713936, -17.086615) " x="11.5383624" y="16.4802517" width="4.35114754" height="1.21272727"></rect>
                <rect id="Rectangle-path" fill="#FEFEFE" transform="translate(25.881843, 21.086910) rotate(-73.960000) translate(-25.881843, -21.086910) " x="17.3492205" y="20.4634393" width="17.0652459" height="1.24694215" rx="0.623471074"></rect>
            </g>
        </g>
    </g>
</svg>