<svg width="46" height="46" viewBox="0 0 46 46" xmlns="http://www.w3.org/2000/svg"><title>category_organization</title><desc>Created with Sketch.</desc><g fill="none"><path d="M2.243 23.01c0-11.626 9.42-21.05 21.042-21.05 11.622 0 21.041 9.424 21.041 21.05 0 11.626-9.419 21.05-21.041 21.05s-21.042-9.424-21.042-21.05" fill="#903489"/><path d="M23.285 3.398c-10.81 0-19.605 8.798-19.605 19.612 0 10.814 8.795 19.612 19.605 19.612 10.809 0 19.604-8.798 19.604-19.612 0-10.814-8.795-19.612-19.604-19.612m0 42.1c-12.396 0-22.48-10.088-22.48-22.487 0-12.4 10.084-22.487 22.48-22.487 12.395 0 22.479 10.087 22.479 22.487 0 12.399-10.084 22.487-22.479 22.487" fill="#FEFEFE"/><path d="M22.298 20.663h6.32s.081-2.032-.191-2.456c-.307-.47-1.33-.765-2.347-1.182-1.015-.421-1.253-.566-1.253-.566l-.012-.963s.38-.291.498-1.198c.239.065.489-.352.501-.575.012-.214-.033-.805-.324-.745.061-.445.105-.845.081-1.06-.073-.772-.842-1.59-2.027-1.59-1.187 0-1.955.817-2.032 1.59-.021.215.024.615.081 1.06-.288-.06-.337.531-.325.745.016.223.263.64.502.575.117.907.498 1.198.498 1.198l-.009.963s-.243.146-1.255.566c-1.015.417-2.042.712-2.346 1.182-.275.425-.191 2.456-.191 2.456h3.829z" fill="#FEFEFE"/><path d="M16.613 26.656c-1.016-.417-1.258-.563-1.258-.563l-.008-.967s.38-.287.496-1.198c.239.069.486-.352.502-.57.012-.216-.032-.806-.323-.745.059-.446.101-.846.081-1.061-.077-.772-.846-1.594-2.031-1.594-1.183 0-1.955.821-2.028 1.594-.02.215.02.615.081 1.061-.29-.061-.335.529-.324.745.012.218.264.639.502.57.118.91.497 1.198.497 1.198l-.008.967s-.242.146-1.259.563c-1.014.421-2.039.716-2.342 1.185-.275.425-.195 2.456-.195 2.456h10.148s.084-2.032-.19-2.456c-.304-.47-1.331-.765-2.343-1.185" fill="#FEFEFE"/><path d="M37.65 27.841c-.308-.47-1.332-.765-2.347-1.185-1.016-.417-1.259-.563-1.259-.563l-.008-.967s.38-.288.498-1.198c.239.069.49-.352.501-.57.012-.215-.033-.806-.323-.745.06-.445.104-.846.081-1.061-.074-.772-.845-1.594-2.028-1.594-1.185 0-1.954.821-2.031 1.594-.02.215.02.616.081 1.061-.291-.061-.335.53-.323.745.015.218.263.639.502.57.117.91.496 1.198.496 1.198l-.009.967s-.242.146-1.254.563c-1.016.421-2.044.716-2.347 1.185-.275.425-.195 2.456-.195 2.456h10.152000000000001s.081-2.032-.19-2.456" fill="#FEFEFE"/><path fill="#FEFEFE" d="M23.956 21.177h-1.004v3.897l-3.488 2.149.494.79 3.496-2.157 3.496 2.157.49-.79-3.485-2.149z"/></g></svg>