<svg width="36" height="46" viewBox="0 0 36 46" xmlns="http://www.w3.org/2000/svg"><title>other_marker</title><desc>Created with Sketch.</desc><g fill="none"><path d="M9.676 42.879c0-1.263 3.731-2.284 8.332-2.284 4.601 0 8.333 1.021 8.333 2.284s-3.732 2.284-8.333 2.284-8.332-1.021-8.332-2.284" fill-opacity=".15" fill="#030404"/><path d="M35.681 17.758c0-9.804-7.913-17.758-17.673-17.758-9.759 0-17.673 7.953-17.673 17.758 0 8.849 6.437 16.183 14.859 17.538l3.069 8.853 2.689-8.876c8.357-1.41 14.729-8.713 14.729-17.515" fill="#3F74BA"/><path d="M8.832 12.993c-.36 6.165 5.191 6.754 5.191 6.754.824-7.089-5.191-6.754-5.191-6.754" fill="#FEFEFE"/><path fill="#FEFEFE" d="M27.166 21.175h-3.063v-3.064h-2.036v3.064h-3.064v2.042h3.064v3.057h2.036v-3.057h3.063z"/><path d="M16.529 27.406s-6.185-17.182 10.774-17.96c0 0 .124 7.847-8.666 6.244 0 0-2.468 2.232-2.108 11.716" fill="#FEFEFE"/></g></svg>