<?xml version="1.0" encoding="UTF-8"?>
<svg width="58px" height="58px" viewBox="0 0 58 58" version="1.1" xmlns="http://www.w3.org/2000/svg" xmlns:xlink="http://www.w3.org/1999/xlink">
    <!-- Generator: Sketch 61 (89581) - https://sketch.com -->
    <title>Coffee Tea Icon</title>
    <desc>Created with Sketch.</desc>
    <g id="Coffee-Tea-Icon" stroke="none" stroke-width="1" fill="none" fill-rule="evenodd">
        <g id="Food-Truck-Icon" fill-rule="nonzero">
            <g id="Group-7" transform="translate(1.000000, 1.000000)" fill="#C27900">
                <circle id="Oval" cx="27.6818182" cy="27.6818182" r="27.6818182"></circle>
            </g>
            <path d="M28.8300162,2.68520463 C18.2752434,2.68119559 8.7575314,9.0361504 4.71561526,18.7863375 C0.67369908,28.5365247 2.9037075,39.7614677 10.3656409,47.2262376 C17.8275744,54.6910074 29.0516695,56.925282 38.8033926,52.8870721 C48.5551158,48.8488623 54.9136886,39.3335668 54.9136886,28.7787938 C54.9000324,14.3772342 43.2315701,2.70433653 28.8300162,2.68520463 M28.7132972,57.4067321 C17.1031739,57.4105781 6.63411888,50.4197698 2.18845078,39.6945191 C-2.25721733,28.9692683 0.1961365,16.6220597 8.4043732,8.4111022 C16.6126098,0.20014471 28.9590051,-2.25730145 39.6857292,2.18481131 C50.4124533,6.62692408 57.4067321,17.093661 57.4067321,28.7037845 C57.3936276,44.5468396 44.5563476,57.3883748 28.7132972,57.4067321" id="Shape" fill="#FEFEFE"></path>
        </g>
        <g id="Group-2" transform="translate(13.500000, 19.000000)" fill="#FFFFFF">
            <path d="M30.1944963,12.1899456 L24.2411563,12.1899456 L24.2411563,5.09124442 L30.1944963,5.09124442 C32.1796968,5.09124442 33.7888462,6.6803298 33.7888462,8.64059503 C33.7888462,10.6008603 32.1796968,12.1899456 30.1944963,12.1899456 M30.1144308,2.01169194 L19.083344,2.01169194 L19.083344,15.1651321 L30.1144308,15.1651321 C33.7927665,15.1651321 36.7746385,12.2206504 36.7746385,8.58826079 C36.7746385,4.95617368 33.7927665,2.01169194 30.1144308,2.01169194" id="Fill-4"></path>
            <path d="M21.2150782,26.6133231 L9.75561878,26.6133231 C8.798,26.6133231 8.02162162,25.8345109 8.02162162,24.8738902 C8.02162162,23.9132695 8.798,23.1344573 9.75561878,23.1344573 L21.2150782,23.1344573 C22.172697,23.1344573 22.9490754,23.9132695 22.9490754,24.8738902 C22.9490754,25.8345109 22.172697,26.6133231 21.2150782,26.6133231" id="Fill-6"></path>
            <path d="M29.8665295,-1.76842727e-13 L15.0076817,-1.76842727e-13 L0.148683168,-1.76842727e-13 C0.148683168,-1.76842727e-13 -2.54594841,21.8309415 15.0076817,21.8309415 C32.5611611,21.8309415 29.8665295,-1.76842727e-13 29.8665295,-1.76842727e-13" id="Fill-8"></path>
        </g>
    </g>
</svg>