<?xml version="1.0" encoding="UTF-8"?>
<svg width="46px" height="46px" viewBox="0 0 46 46" version="1.1" xmlns="http://www.w3.org/2000/svg" xmlns:xlink="http://www.w3.org/1999/xlink">
    <!-- Generator: Sketch 50.2 (55047) - http://www.bohemiancoding.com/sketch -->
    <title>Artboard 3</title>
    <desc>Created with Sketch.</desc>
    <defs></defs>
    <g id="Artboard-3" stroke="none" stroke-width="1" fill="none" fill-rule="evenodd">
        <g id="Group-5">
            <g id="Asset-131">
                <ellipse id="Oval" fill="#F1592A" fill-rule="nonzero" cx="22.2232787" cy="22.9391736" rx="20.7716393" ry="20.9433058"></ellipse>
                <path d="M23.1659016,2.93107438 C15.1373199,2.92030779 7.89334512,7.78829248 4.81353794,15.2639481 C1.73373075,22.7396037 3.42498658,31.3498051 9.09827709,37.0776005 C14.7715676,42.8053959 23.308935,44.522087 30.7274072,41.4267792 C38.1458794,38.3314713 42.9835995,31.0341144 42.9836066,22.9391736 C42.9732467,11.9037191 34.110878,2.95620716 23.1659016,2.93107438 M23.1659016,45.8897521 C13.9617108,45.8928275 5.66212786,40.3049014 2.13772275,31.731943 C-1.38668236,23.1589847 0.558270024,13.2895552 7.06553745,6.72633361 C13.5728049,0.163112066 23.3606922,-1.80118547 31.8645482,1.74950521 C40.3684041,5.30019589 45.9132782,13.6665178 45.9132787,22.9467769 C45.9028898,35.6105229 35.7258424,45.8750799 23.1659016,45.8897521" id="Shape" fill="#FEFEFE" fill-rule="nonzero"></path>
                <ellipse id="Oval" fill="#F1592A" fill-rule="nonzero" cx="23.1621311" cy="23.0950413" rx="19.3991803" ry="19.5595041"></ellipse>
                <path d="M25.974918,16.5219835 L25.974918,20.8292562 L31.5137705,20.8292562 L29.3344262,17.3697521 C28.9925807,16.8515145 28.4207623,16.5348412 27.8036066,16.5219835 L25.974918,16.5219835 Z" id="Shape" fill="#F1592A" fill-rule="nonzero"></path>
                <path d="M14.3618033,14.7656198 L28.2447541,14.7656198 L28.2447541,29.6110744 L12.7367213,29.6110744 C11.4206539,29.6110744 10.3537705,28.5353737 10.3537705,27.2084298 L10.3537705,18.8067769 C10.3537705,16.5749075 12.1482279,14.7656198 14.3618033,14.7656198 Z" id="Shape" fill="#FFFFFF" fill-rule="nonzero"></path>
                <path d="M34.1154098,20.7798347 L26.7704918,20.7798347 L26.7704918,29.6110744 L36.8377049,29.6110744 C37.5623749,29.6110744 38.1498361,29.0187582 38.1498361,28.2880992 L38.1498361,23.908595 C38.1450289,23.1058581 37.6766046,22.3795922 36.9508197,22.0495868 L34.1154098,20.7798347 Z" id="Shape" fill="#FFFFFF" fill-rule="nonzero"></path>
                <path d="M34.1154098,20.7798347 L29.7303279,15.7046281 C29.3047251,15.1148357 28.6250435,14.7658279 27.9016393,14.7656198 C27.4193699,14.7654812 23.7117197,17.9538007 16.7786885,24.3305785 C23.6922885,24.6452149 28.845294,24.4551322 32.2377049,23.7603306 C35.6301159,23.065529 36.2560175,22.0720303 34.1154098,20.7798347 Z" id="Shape" fill="#FFFFFF" fill-rule="nonzero"></path>
                <ellipse id="Oval" fill="#F1592A" fill-rule="nonzero" cx="32.1698361" cy="29.6110744" rx="3.21245902" ry="3.23900826"></ellipse>
                <ellipse id="Oval" fill="#FFFFFF" fill-rule="nonzero" cx="32.1698361" cy="29.6110744" rx="1.90032787" ry="1.91603306"></ellipse>
                <ellipse id="Oval" fill="#F1592A" fill-rule="nonzero" cx="16.0886885" cy="29.6110744" rx="3.21245902" ry="3.23900826"></ellipse>
                <ellipse id="Oval" fill="#FFFFFF" fill-rule="nonzero" cx="16.0886885" cy="29.6110744" rx="1.90032787" ry="1.91603306"></ellipse>
                <path d="M25.974918,20.8292562 L25.974918,16.5219418 L27.822459,16.5219835 C28.5249003,16.5174469 29.1785155,16.8837276 29.5455738,17.4876033 L31.517541,20.8140496 L25.974918,20.8292562 Z" id="Shape" fill="#F1592A" fill-rule="nonzero"></path>
                <path d="M22.8114754,21.7454545 L22.8114754,23.1672727 C22.8094067,23.3904433 22.6293838,23.5702577 22.4080328,23.5702479 L13.5963934,23.5702479 C13.3765135,23.5681855 13.1987668,23.3889699 13.1967213,23.1672727 L13.1967213,21.7454545 C13.1967213,21.6355541 13.1534214,21.5301549 13.076347,21.4524435 C12.9992726,21.3747322 12.8947373,21.3310744 12.7857377,21.3310744 C12.6754374,21.3290335 12.5689543,21.3717886 12.4902412,21.4497222 C12.4115281,21.5276559 12.3671945,21.634224 12.3672131,21.7454545 L12.3672131,23.4333884 C12.3672131,23.9939803 12.8179376,24.4484298 13.3739344,24.4484298 L22.6229508,24.4484298 C23.1789476,24.4484298 23.6296721,23.9939803 23.6296721,23.4333884 L23.6296721,21.7454545 C23.6296721,21.6355541 23.5863722,21.5301549 23.5092978,21.4524435 C23.4322234,21.3747322 23.3276882,21.3310744 23.2186885,21.3310744 C22.9931824,21.3331604 22.8114659,21.5180752 22.8114754,21.7454545 Z" id="Shape" fill="#F1592A" fill-rule="nonzero"></path>
                <path d="M24.0519672,19.6697521 L22.2459016,16.7272727 L18.0606557,16.6892562 L17.917377,16.6892562 L13.7245902,16.7272727 L11.9298361,19.6583471 C11.9298361,19.6583471 11.5791803,20.6695868 12.8762295,20.8178512 C12.8762295,20.8178512 14.0714754,20.8672727 14.4221311,20.1601653 C14.5992218,20.6249772 15.0616148,20.9140301 15.5532787,20.8672727 C15.5532787,20.8672727 16.6504918,20.8672727 16.8013115,20.2095868 C16.8013115,20.2095868 16.9822951,20.7570248 17.9060656,20.8102479 L18.0493443,20.8102479 C18.9693443,20.7570248 19.1540984,20.2095868 19.1540984,20.2095868 C19.304918,20.8672727 20.4021311,20.8672727 20.4021311,20.8672727 C20.8931793,20.9113997 21.3541251,20.6232515 21.5332787,20.1601653 C21.8801639,20.8672727 23.0754098,20.8178512 23.0754098,20.8178512 C24.3988525,20.6809917 24.0519672,19.6697521 24.0519672,19.6697521 Z M16.5109836,19.4150413 C16.5109836,19.4150413 16.5109836,20.3236364 15.4627869,20.2247934 C15.4627869,20.2247934 14.7086885,20.2742149 14.9122951,19.2135537 L15.5608197,17.1910744 L16.8088525,17.1910744 L16.5109836,19.4150413 Z M20.3606557,20.228595 C19.312459,20.327438 19.312459,19.418843 19.312459,19.418843 L19.0145902,17.194876 L20.262623,17.194876 L20.9111475,19.2173554 C21.1147541,20.2780165 20.3606557,20.228595 20.3606557,20.228595 Z" id="Shape" fill="#F1592A" fill-rule="nonzero"></path>
                <path d="M0,5.63404959 L0.5,5.63404959" id="Shape"></path>
            </g>
        </g>
    </g>
</svg>