<svg width="46" height="46" viewBox="0 0 46 46" xmlns="http://www.w3.org/2000/svg"><title>category_vegfriendly</title><desc>Created with Sketch.</desc><g fill="none"><path d="M2.177 23.129c0-11.626 9.42-21.05 21.041-21.05 11.622 0 21.042 9.424 21.042 21.05 0 11.626-9.42 21.05-21.042 21.05-11.621 0-21.041-9.424-21.041-21.05" fill="#DC5D5C"/><path d="M23.218 3.517c-10.809 0-19.604 8.798-19.604 19.612 0 10.814 8.795 19.612 19.604 19.612 10.81 0 19.605-8.798 19.605-19.612 0-10.814-8.795-19.612-19.605-19.612m0 42.1c-12.395 0-22.479-10.088-22.479-22.487 0-12.4 10.084-22.487 22.479-22.487 12.396 0 22.48 10.087 22.48 22.487 0 12.399-10.084 22.487-22.48 22.487" fill="#FEFEFE"/><path d="M17.796 37.972s-5.895-19.977 10.209-28.604l.211.413c1.251 2.517 2.121 5.304 2.436 8.097.219 1.943.157 3.933-.377 5.819-.659 2.342-2.662 3.455-4.718 4.512-.594.307-1.218.558-1.826.838-1.128.525-2.278 1.184-2.75 2.403 0 0-.118-1.954 3.249-6.151 0 0 2.371-2.387 2.283-6.983 0 0-7.738 2.233-8.717 19.657" fill="#FEFEFE"/></g></svg>