<svg width="46" height="46" viewBox="0 0 46 46" xmlns="http://www.w3.org/2000/svg"><title>category_veg_store</title><desc>Created with Sketch.</desc><g fill="none"><path d="M2.177 22.645c0-11.626 9.42-21.05 21.041-21.05 11.622 0 21.042 9.424 21.042 21.05 0 11.621-9.42 21.045-21.042 21.045-11.621 0-21.041-9.424-21.041-21.045" fill="#4D9141"/><path d="M23.218 3.033c-10.809 0-19.604 8.798-19.604 19.612 0 10.812 8.795 19.608 19.604 19.608 10.81 0 19.605-8.796 19.605-19.608 0-10.814-8.795-19.612-19.605-19.612m0 42.095c-12.395 0-22.479-10.086-22.479-22.483 0-12.4 10.084-22.487 22.479-22.487 12.396 0 22.48 10.087 22.48 22.487 0 12.397-10.084 22.483-22.48 22.483" fill="#FEFEFE"/><path d="M29.523 29.706c.692-5.952-4.371-5.677-4.371-5.677-.308 5.184 4.371 5.677 4.371 5.677" fill="#FEFEFE"/><path d="M33.63 24.45c-3.273 2.719-2.966 8.842-2.966 8.842 1.291-4.104 3.019-5.531 3.508-5.39l.206.093c4.375.745 4.484-5.342 4.484-5.342-2.4.126-4.067.834-5.233 1.797" fill="#FEFEFE"/><path d="M35.738 19.4l-3.958-6.361-9.245-.104v-.004h-.315v.004l-9.247.104-3.958 6.361s-.772 2.194 2.088 2.521c0 0 2.638.109 3.408-1.424 0 0 .437 1.533 2.528 1.533 0 0 2.416 0 2.748-1.425 0 0 .401 1.19 2.433 1.307v.009l.157-.005.158.005v-.009c2.031-.117 2.431-1.307 2.431-1.307.332 1.425 2.748 1.425 2.748 1.425 2.088 0 2.529-1.533 2.529-1.533.769 1.533 3.407 1.424 3.407 1.424 2.857-.328 2.088-2.521 2.088-2.521zm-16.611-.55s0 1.974-2.311 1.756c0 0-1.647.11-1.21-2.193l1.433-4.386h2.748l-.659 4.823zm8.498 1.756c-2.307.218-2.307-1.756-2.307-1.756l-.659-4.823h2.748l1.428 4.386c.438 2.303-1.209 2.193-1.209 2.193z" fill="#FEFEFE"/><path d="M21.029 32.122v-5.702h-3.957v5.702h-2.343c-1.116 0-1.922-.251-2.327-.721-.401-.457-.324-1.016-.319-1.031l.008-6.802h-1.319v6.644c-.033.271-.085 1.202.607 2.023.672.797 1.801 1.202 3.35 1.202h12.605l.203-1.315h-6.507z" fill="#FEFEFE"/></g></svg>