<svg width="46" height="46" viewBox="0 0 46 46" xmlns="http://www.w3.org/2000/svg"><title>category_vegan</title><desc>Created with Sketch.</desc><g fill="none"><path d="M2.177 22.926c0-11.626 9.42-21.05 21.041-21.05 11.622 0 21.042 9.424 21.042 21.05 0 11.626-9.42 21.05-21.042 21.05-11.621 0-21.041-9.424-21.041-21.05" fill="#268B42"/><path d="M23.218 3.314c-10.809 0-19.604 8.798-19.604 19.612 0 10.814 8.795 19.612 19.604 19.612 10.81 0 19.605-8.798 19.605-19.612 0-10.814-8.795-19.612-19.605-19.612m0 42.1c-12.395 0-22.479-10.088-22.479-22.487 0-12.4 10.084-22.487 22.479-22.487 12.396 0 22.48 10.087 22.48 22.487 0 12.399-10.084 22.487-22.48 22.487" fill="#FEFEFE"/><path d="M24.421 36.959s-2.857-17.647 11.775-23.206l.133.367c.785 2.255 1.214 4.695 1.185 7.082-.024 1.659-.291 3.33-.938 4.872-.81 1.91-2.619 2.65-4.472 3.338-.539.198-1.093.348-1.639.526-1.02.335-2.068.777-2.606 1.768 0 0 .113-1.675 3.431-4.896 0 0 2.266-1.781 2.687-5.673 0 0-6.811 1.076-9.557 15.822" fill="#FEFEFE"/><path d="M22.555 36.959s2.857-17.647-11.775-23.206l-.134.367c-.784 2.255-1.217 4.695-1.184 7.082.024 1.659.287 3.33.938 4.872.81 1.91 2.618 2.65 4.472 3.338.539.198 1.093.348 1.638.526 1.021.335 2.069.777 2.607 1.768 0 0-.113-1.675-3.432-4.896 0 0-2.266-1.781-2.686-5.673 0 0 6.81 1.076 9.557 15.822" fill="#FEFEFE"/></g></svg>