<svg width="46" height="46" viewBox="0 0 46 46" xmlns="http://www.w3.org/2000/svg"><title>category_vegetarian</title><desc>Created with Sketch.</desc><g fill="none"><path d="M2.243 22.926c0-11.626 9.42-21.05 21.042-21.05 11.622 0 21.041 9.424 21.041 21.05 0 11.626-9.419 21.05-21.041 21.05s-21.042-9.424-21.042-21.05" fill="#89288F"/><path d="M23.285 3.314c-10.81 0-19.605 8.798-19.605 19.612 0 10.814 8.795 19.612 19.605 19.612 10.809 0 19.604-8.798 19.604-19.612 0-10.814-8.795-19.612-19.604-19.612m0 42.1c-12.396 0-22.48-10.088-22.48-22.487 0-12.4 10.084-22.487 22.48-22.487 12.395 0 22.479 10.087 22.479 22.487 0 12.399-10.084 22.487-22.479 22.487" fill="#FEFEFE"/><path d="M8.985 24.411s8.878-1.999 9.428 8.769c0 0-8.42.517-9.428-8.769" fill="#FEFEFE"/><path d="M22.525 37.768s-5.863-19.977 10.149-28.604l.211.413c1.245 2.517 2.107 5.304 2.419 8.097.222 1.943.158 3.933-.373 5.819-.655 2.342-2.645 3.459-4.689 4.512-.59.307-1.21.558-1.813.838-1.125.525-2.266 1.185-2.739 2.404 0 0-.117-1.955 3.229-6.152 0 0 2.359-2.387 2.27-6.983 0 0-7.693 2.234-8.663 19.657" fill="#FEFEFE"/></g></svg>